# xmcd
#
# Track frame offsets:
#	150
#	14734
#	30847
#	41187
#	56711
#	71535
#	87277
#	105850
#	118161
#	136776
#	148442
#	165641
#	188572
#	201926
#	219624
#
# Disc length: 3112 seconds
#
# Revision: 1
# Processed by: cddbd v1.4PL0 Copyright (c) Steve Scherf et al.
# Submitted via: audiograbber 1.80
#
DISCID=d90c260f
DTITLE=Crystal Gayle - Crystal Gayle Sings The Heart And Soul Of Hoagy Carmicha
DTITLE=el
DYEAR=1900
DGENRE=
TTITLE0=Heart And Soul
TTITLE1=Stardust
TTITLE2=In The Cool, Cool, Cool Of The Evening
TTITLE3=One Morning In May
TTITLE4=Lazybones
TTITLE5=Ole Buttemilk Sky
TTITLE6=Georgia On My Mind
TTITLE7=Two Sleepy People (with Willie Nelson)
TTITLE8=I Get Along Without You Very Well (Except Sometimes)
TTITLE9=Lazy River
TTITLE10=Rockin' Chair
TTITLE11=The Nearness Of You
TTITLE12=Small Fry
TTITLE13=Skylark
TTITLE14=Can't Get Indiana Off My Mind
EXTD=
EXTT0=
EXTT1=
EXTT2=
EXTT3=
EXTT4=
EXTT5=
EXTT6=
EXTT7=
EXTT8=
EXTT9=
EXTT10=
EXTT11=
EXTT12=
EXTT13=
EXTT14=
PLAYORDER=
